<mxfile host="Electron" modified="2024-02-12T10:08:03.352Z" agent="Mozilla/5.0 (Windows NT 10.0; Win64; x64) AppleWebKit/537.36 (KHTML, like Gecko) draw.io/22.1.2 Chrome/114.0.5735.289 Electron/25.9.4 Safari/537.36" etag="VHKDJhLKxtGKN3fIBjGs" version="22.1.2" type="device">
  <diagram name="Страница — 1" id="BPj2XZuRE-X43Mh8QErp">
    <mxGraphModel dx="472" dy="820" grid="1" gridSize="10" guides="1" tooltips="1" connect="1" arrows="1" fold="1" page="1" pageScale="1" pageWidth="1169" pageHeight="827" math="0" shadow="0">
      <root>
        <mxCell id="0" />
        <mxCell id="1" parent="0" />
        <mxCell id="69j75MGkb01TaIrNCyCj-1" value="" style="whiteSpace=wrap;html=1;aspect=fixed;" parent="1" vertex="1">
          <mxGeometry x="90" y="210" width="230" height="230" as="geometry" />
        </mxCell>
        <mxCell id="69j75MGkb01TaIrNCyCj-2" value="&lt;h1&gt;User&lt;/h1&gt;&lt;p&gt;id:&lt;/p&gt;&lt;p&gt;&lt;span style=&quot;background-color: initial;&quot;&gt;name:&lt;/span&gt;&lt;/p&gt;&lt;p&gt;password:&lt;/p&gt;&lt;p&gt;about:&lt;/p&gt;&lt;p&gt;expirience(List)&lt;/p&gt;&lt;p&gt;skills(List)&lt;/p&gt;" style="text;html=1;strokeColor=none;fillColor=none;spacing=5;spacingTop=-20;whiteSpace=wrap;overflow=hidden;rounded=0;" parent="1" vertex="1">
          <mxGeometry x="110" y="220" width="130" height="210" as="geometry" />
        </mxCell>
        <mxCell id="69j75MGkb01TaIrNCyCj-3" value="" style="whiteSpace=wrap;html=1;aspect=fixed;" parent="1" vertex="1">
          <mxGeometry x="400" y="130" width="150" height="150" as="geometry" />
        </mxCell>
        <mxCell id="69j75MGkb01TaIrNCyCj-4" value="&lt;h1&gt;Expirience&lt;/h1&gt;&lt;div&gt;id:&lt;/div&gt;&lt;div&gt;year:&lt;/div&gt;&lt;div&gt;company:&lt;/div&gt;&lt;div&gt;description:&lt;/div&gt;&lt;div&gt;user_fk:&lt;/div&gt;" style="text;html=1;strokeColor=none;fillColor=none;spacing=5;spacingTop=-20;whiteSpace=wrap;overflow=hidden;rounded=0;" parent="1" vertex="1">
          <mxGeometry x="410" y="132.5" width="130" height="145" as="geometry" />
        </mxCell>
        <mxCell id="69j75MGkb01TaIrNCyCj-5" value="" style="whiteSpace=wrap;html=1;aspect=fixed;" parent="1" vertex="1">
          <mxGeometry x="400" y="360" width="150" height="150" as="geometry" />
        </mxCell>
        <mxCell id="69j75MGkb01TaIrNCyCj-6" value="&lt;h1&gt;Skills&lt;/h1&gt;&lt;div&gt;id:&lt;/div&gt;&lt;div&gt;img:&lt;/div&gt;&lt;div&gt;title:&lt;/div&gt;&lt;div&gt;description:&lt;/div&gt;&lt;div&gt;user_id:&lt;/div&gt;" style="text;html=1;strokeColor=none;fillColor=none;spacing=5;spacingTop=-20;whiteSpace=wrap;overflow=hidden;rounded=0;" parent="1" vertex="1">
          <mxGeometry x="420" y="370" width="110" height="130" as="geometry" />
        </mxCell>
        <mxCell id="69j75MGkb01TaIrNCyCj-8" value="" style="endArrow=classic;html=1;rounded=0;entryX=1;entryY=0.875;entryDx=0;entryDy=0;entryPerimeter=0;exitX=0;exitY=0.9;exitDx=0;exitDy=0;exitPerimeter=0;" parent="1" source="69j75MGkb01TaIrNCyCj-6" target="69j75MGkb01TaIrNCyCj-1" edge="1">
          <mxGeometry width="50" height="50" relative="1" as="geometry">
            <mxPoint x="440" y="450" as="sourcePoint" />
            <mxPoint x="490" y="400" as="targetPoint" />
          </mxGeometry>
        </mxCell>
        <mxCell id="69j75MGkb01TaIrNCyCj-9" value="" style="endArrow=classic;html=1;rounded=0;exitX=0.008;exitY=0.831;exitDx=0;exitDy=0;exitPerimeter=0;entryX=1;entryY=0.363;entryDx=0;entryDy=0;entryPerimeter=0;" parent="1" source="69j75MGkb01TaIrNCyCj-4" target="69j75MGkb01TaIrNCyCj-1" edge="1">
          <mxGeometry width="50" height="50" relative="1" as="geometry">
            <mxPoint x="440" y="450" as="sourcePoint" />
            <mxPoint x="490" y="400" as="targetPoint" />
          </mxGeometry>
        </mxCell>
        <mxCell id="69j75MGkb01TaIrNCyCj-10" value="ForeignKey" style="text;whiteSpace=wrap;html=1;rotation=-30;" parent="1" vertex="1">
          <mxGeometry x="330" y="240" width="90" height="40" as="geometry" />
        </mxCell>
        <mxCell id="69j75MGkb01TaIrNCyCj-12" value="ForeignKey" style="text;whiteSpace=wrap;html=1;rotation=45;" parent="1" vertex="1">
          <mxGeometry x="330" y="410.00000000000006" width="90" height="30" as="geometry" />
        </mxCell>
        <mxCell id="69j75MGkb01TaIrNCyCj-15" value="" style="edgeStyle=none;orthogonalLoop=1;jettySize=auto;html=1;rounded=0;exitX=0.75;exitY=1;exitDx=0;exitDy=0;entryX=-0.036;entryY=0.162;entryDx=0;entryDy=0;entryPerimeter=0;" parent="1" source="69j75MGkb01TaIrNCyCj-2" target="69j75MGkb01TaIrNCyCj-6" edge="1">
          <mxGeometry width="100" relative="1" as="geometry">
            <mxPoint x="140" y="600" as="sourcePoint" />
            <mxPoint x="230" y="660" as="targetPoint" />
            <Array as="points" />
          </mxGeometry>
        </mxCell>
        <mxCell id="69j75MGkb01TaIrNCyCj-16" value="" style="edgeStyle=none;orthogonalLoop=1;jettySize=auto;html=1;rounded=0;entryX=0;entryY=0.25;entryDx=0;entryDy=0;exitX=0.5;exitY=1;exitDx=0;exitDy=0;" parent="1" source="69j75MGkb01TaIrNCyCj-2" target="69j75MGkb01TaIrNCyCj-4" edge="1">
          <mxGeometry width="100" relative="1" as="geometry">
            <mxPoint x="180" y="420" as="sourcePoint" />
            <mxPoint x="426" y="401" as="targetPoint" />
            <Array as="points" />
          </mxGeometry>
        </mxCell>
        <mxCell id="69j75MGkb01TaIrNCyCj-19" value="relationship" style="text;html=1;align=center;verticalAlign=middle;resizable=0;points=[];autosize=1;strokeColor=none;fillColor=none;rotation=-45;" parent="1" vertex="1">
          <mxGeometry x="310" y="190" width="80" height="30" as="geometry" />
        </mxCell>
        <mxCell id="dfHuWwOr8TLg4rhgei_2-1" value="" style="edgeStyle=orthogonalEdgeStyle;rounded=0;orthogonalLoop=1;jettySize=auto;html=1;" parent="1" source="69j75MGkb01TaIrNCyCj-20" target="69j75MGkb01TaIrNCyCj-12" edge="1">
          <mxGeometry relative="1" as="geometry" />
        </mxCell>
        <mxCell id="69j75MGkb01TaIrNCyCj-20" value="relationship" style="text;html=1;align=center;verticalAlign=middle;resizable=0;points=[];autosize=1;strokeColor=none;fillColor=none;rotation=0;" parent="1" vertex="1">
          <mxGeometry x="230" y="380" width="80" height="30" as="geometry" />
        </mxCell>
      </root>
    </mxGraphModel>
  </diagram>
</mxfile>
